<?xml version="1.0" standalone="no"?>
<!DOCTYPE svg PUBLIC "-//W3C//DTD SVG 20010904//EN"
 "http://www.w3.org/TR/2001/REC-SVG-20010904/DTD/svg10.dtd">
<svg version="1.0" xmlns="http://www.w3.org/2000/svg"
 width="555.000000pt" height="555.000000pt" viewBox="0 0 555.000000 555.000000"
 preserveAspectRatio="xMidYMid meet">
<metadata>
Created by potrace 1.11, written by Peter Selinger 2001-2013
</metadata>
<g transform="translate(0.000000,555.000000) scale(0.100000,-0.100000)"
fill="#000000" stroke="none">
<path d="M898 5499 c-31 -4 -72 -13 -90 -18 -37 -12 -44 -13 102 9 30 5 883 8
1895 7 1012 -1 1824 1 1805 4 -54 10 -3647 8 -3712 -2z"/>
<path d="M4650 5493 c0 -5 9 -9 19 -10 11 -1 50 -9 88 -19 216 -54 426 -206
558 -404 45 -68 100 -179 92 -187 -3 -2 -12 15 -22 39 -48 123 -206 308 -336
394 -111 73 -246 133 -340 149 -19 3 -52 10 -74 15 -24 6 -793 9 -1870 9
-1727 -1 -1835 -2 -1910 -19 -294 -66 -527 -240 -668 -500 -34 -62 -86 -203
-103 -280 -5 -19 -10 -862 -11 -1874 -3 -1585 -1 -1849 11 -1920 19 -102 24
-124 29 -134 3 -4 12 -31 20 -59 19 -63 6 -79 -21 -26 -21 41 -62 205 -62 247
0 14 -4 26 -9 26 -19 0 31 -207 78 -318 16 -40 26 -70 21 -67 -6 4 -10 1 -10
-4 0 -6 4 -11 9 -11 5 0 9 -11 9 -25 0 -33 42 -97 83 -126 18 -13 29 -16 24
-8 -4 7 2 4 15 -9 12 -13 28 -21 36 -18 9 3 11 0 7 -11 -4 -11 -2 -14 8 -11 8
3 13 11 11 17 -2 11 67 -34 138 -89 99 -77 270 -151 406 -175 48 -8 91 -15 96
-15 5 0 7 -4 4 -9 -3 -5 -25 -7 -49 -5 -181 19 -324 71 -463 169 -85 59 -125
96 -117 109 3 6 0 5 -8 -2 -11 -10 -7 -17 21 -42 101 -87 263 -180 355 -205
17 -4 35 -9 40 -11 119 -33 284 -47 560 -45 1629 7 1825 7 1825 -2 0 -5 6 -5
13 2 8 6 17 8 20 4 4 -3 21 -8 38 -10 22 -2 28 0 23 10 -6 9 -5 9 7 1 18 -15
70 -15 88 0 11 8 13 8 8 -1 -9 -15 32 -14 52 1 11 8 13 8 8 0 -4 -7 2 -11 18
-11 15 0 22 4 18 11 -3 6 0 6 8 -1 7 -7 19 -13 27 -13 8 0 10 5 6 13 -6 9 -4
9 7 1 18 -15 150 -15 168 0 11 8 13 8 8 -1 -9 -15 32 -14 52 1 11 8 13 8 8 0
-4 -7 2 -11 18 -11 15 0 22 4 18 11 -3 6 0 6 8 -1 16 -16 43 -17 34 -2 -4 6 2
5 14 -3 17 -11 25 -11 42 0 12 8 18 9 14 3 -9 -15 8 -14 24 2 8 7 11 7 8 1 -4
-7 3 -11 18 -11 16 0 22 4 18 11 -5 8 -3 8 8 0 19 -14 66 -16 75 -3 4 8 9 7
15 -2 8 -12 10 -12 18 0 6 9 11 10 15 2 4 -6 13 -8 19 -4 7 4 116 8 242 10
272 2 333 7 440 34 95 24 272 106 259 119 -5 5 -46 -9 -99 -36 -124 -61 -257
-93 -409 -99 -68 -2 -112 -1 -101 4 11 5 67 11 125 14 123 6 265 40 365 87 72
34 194 109 231 142 15 13 24 16 29 9 3 -7 1 -10 -6 -9 -7 2 -13 -4 -14 -12 0
-8 -4 -15 -10 -15 -19 -1 -56 -26 -50 -35 3 -5 0 -12 -6 -16 -8 -5 -9 -3 -4 6
5 8 3 11 -6 8 -8 -3 -13 -10 -12 -16 1 -5 -3 -9 -10 -8 -14 1 -23 -17 -9 -22
18 -6 222 169 222 191 0 4 -6 5 -12 1 -7 -4 -4 2 6 14 11 12 21 20 24 17 7 -6
32 15 32 27 0 5 -5 6 -10 3 -6 -4 3 16 20 44 40 64 50 67 13 4 -15 -26 -22
-43 -15 -39 16 10 81 127 110 200 33 81 61 186 51 186 -5 0 -9 5 -9 11 0 5 4
8 9 4 12 -7 25 90 18 133 -3 18 -1 32 4 32 6 0 7 5 4 11 -10 15 -13 89 -4 95
4 2 4 18 -1 34 -5 17 -5 30 0 30 4 0 6 8 4 17 -8 36 -10 154 -3 159 4 2 4 18
-1 34 -5 17 -5 30 0 30 4 0 6 8 4 18 -8 37 -10 153 -2 158 5 3 6 10 2 15 -3 5
-11 6 -17 2 -8 -5 -8 -2 0 9 7 8 10 18 6 21 -3 4 -1 7 6 7 7 0 9 5 6 11 -10
15 -13 89 -4 95 4 2 4 18 -1 34 -5 17 -5 30 0 30 4 0 6 8 4 18 -8 35 -10 153
-3 158 4 2 4 18 -1 34 -5 17 -5 30 0 30 4 0 6 8 4 17 -8 38 -10 154 -2 159 5
3 6 10 2 15 -3 5 -11 6 -17 2 -8 -5 -8 -2 0 9 7 8 10 18 6 21 -3 4 -1 7 6 7 7
0 9 5 6 11 -10 15 -13 89 -4 95 4 2 4 18 -1 34 -5 17 -5 30 0 30 4 0 6 8 4 17
-8 36 -10 154 -3 159 4 2 4 18 -1 34 -5 17 -5 30 0 30 4 0 6 8 4 18 -8 37 -10
153 -2 158 5 3 6 10 2 15 -3 5 -11 6 -17 2 -8 -5 -8 -2 0 9 7 8 10 18 6 21 -3
4 -1 7 6 7 7 0 9 5 6 11 -10 15 -13 89 -4 95 4 2 4 18 -1 34 -5 17 -5 30 0 30
4 0 6 8 4 18 -8 35 -10 153 -3 158 4 2 4 18 -1 34 -5 17 -5 30 0 30 4 0 6 8 4
18 -8 37 -10 153 -2 158 5 3 6 10 2 15 -3 5 -11 6 -17 2 -8 -5 -8 -2 0 9 7 8
10 18 6 21 -3 4 -1 7 6 7 7 0 9 5 6 11 -10 15 -13 89 -4 95 4 2 4 18 -1 34 -5
17 -5 30 0 30 4 0 6 8 4 18 -8 35 -10 153 -3 158 4 2 4 18 -1 34 -5 17 -5 30
0 30 4 0 6 8 4 18 -8 37 -10 153 -2 158 5 3 6 10 2 15 -3 5 -11 6 -17 2 -8 -5
-8 -2 0 9 7 8 10 18 6 21 -3 4 -1 7 6 7 7 0 9 5 6 11 -10 15 -13 89 -4 95 4 2
4 18 -1 34 -5 19 -5 30 1 30 6 0 8 4 4 9 -3 6 -6 57 -6 116 0 58 -4 103 -8
101 -4 -3 -5 11 -3 30 3 20 -2 41 -9 51 -12 14 -12 15 -1 9 11 -7 12 -4 4 10
-5 11 -13 36 -16 58 -4 21 -12 50 -18 65 -6 14 -12 31 -13 36 -5 19 -61 130
-89 175 -128 202 -357 367 -591 424 -38 10 -78 20 -87 22 -10 3 -18 2 -18 -3z
m780 -668 c0 -5 -5 -3 -10 5 -5 8 -10 20 -10 25 0 6 5 3 10 -5 5 -8 10 -19 10
-25z m57 -3917 c-3 -7 -5 -2 -5 12 0 14 2 19 5 13 2 -7 2 -19 0 -25z m-30
-140 c-3 -8 -6 -5 -6 6 -1 11 2 17 5 13 3 -3 4 -12 1 -19z m-14 -53 c-3 -9 -8
-14 -10 -11 -3 3 -2 9 2 15 9 16 15 13 8 -4z m-20 -50 c-7 -21 -12 -19 -10 4
0 11 5 18 9 15 4 -3 5 -11 1 -19z m-13 -32 c0 -5 -5 -15 -10 -23 -7 -12 -9
-10 -7 8 1 19 17 33 17 15z m-5186 -198 c3 -8 1 -15 -4 -15 -6 0 -10 7 -10 15
0 8 2 15 4 15 2 0 6 -7 10 -15z m23 -31 c-3 -3 -12 -4 -19 -1 -8 3 -5 6 6 6
11 1 17 -2 13 -5z m48 -14 c10 -11 16 -20 13 -20 -3 0 -13 9 -23 20 -10 11
-16 20 -13 20 3 0 13 -9 23 -20z m2510 -330 c2 -4 -260 -7 -583 -7 -323 0
-578 3 -567 8 25 10 1143 10 1150 -1z"/>
<path d="M680 5446 c-149 -61 -243 -121 -344 -220 -115 -113 -189 -227 -245
-376 -37 -101 -65 -250 -49 -266 4 -3 7 2 6 12 -2 41 15 133 39 209 56 179
172 351 313 466 23 19 48 39 54 44 39 34 210 118 274 134 23 7 42 14 42 16 0
10 -38 2 -90 -19z"/>
<path d="M31 4516 c-1 -33 1 -57 4 -55 8 9 12 75 4 94 -5 13 -8 -1 -8 -39z"/>
<path d="M30 4440 c0 -5 5 -10 11 -10 5 0 7 5 4 10 -3 6 -8 10 -11 10 -2 0 -4
-4 -4 -10z"/>
<path d="M31 4380 c1 -42 1 -43 9 -16 6 17 5 36 0 45 -7 11 -9 3 -9 -29z"/>
<path d="M31 4276 c-1 -33 1 -57 4 -55 8 9 12 75 4 94 -5 13 -8 -1 -8 -39z"/>
<path d="M30 4200 c0 -5 5 -10 11 -10 5 0 7 5 4 10 -3 6 -8 10 -11 10 -2 0 -4
-4 -4 -10z"/>
<path d="M31 4140 c1 -42 1 -43 9 -16 6 17 5 36 0 45 -7 11 -9 3 -9 -29z"/>
<path d="M31 4036 c-1 -33 1 -57 4 -55 8 9 12 75 4 94 -5 13 -8 -1 -8 -39z"/>
<path d="M30 3960 c0 -5 5 -10 11 -10 5 0 7 5 4 10 -3 6 -8 10 -11 10 -2 0 -4
-4 -4 -10z"/>
<path d="M31 3900 c1 -42 1 -43 9 -16 6 17 5 36 0 45 -7 11 -9 3 -9 -29z"/>
<path d="M31 3796 c-1 -33 1 -57 4 -55 8 9 12 75 4 94 -5 13 -8 -1 -8 -39z"/>
<path d="M30 3720 c0 -5 5 -10 11 -10 5 0 7 5 4 10 -3 6 -8 10 -11 10 -2 0 -4
-4 -4 -10z"/>
<path d="M31 3660 c1 -42 1 -43 9 -16 6 17 5 36 0 45 -7 11 -9 3 -9 -29z"/>
<path d="M31 3556 c-1 -33 1 -57 4 -55 8 9 12 75 4 94 -5 13 -8 -1 -8 -39z"/>
<path d="M30 3480 c0 -5 5 -10 11 -10 5 0 7 5 4 10 -3 6 -8 10 -11 10 -2 0 -4
-4 -4 -10z"/>
<path d="M31 3420 c1 -42 1 -43 9 -16 6 17 5 36 0 45 -7 11 -9 3 -9 -29z"/>
<path d="M31 3316 c-1 -33 1 -57 4 -55 8 9 12 75 4 94 -5 13 -8 -1 -8 -39z"/>
<path d="M30 3240 c0 -5 5 -10 11 -10 5 0 7 5 4 10 -3 6 -8 10 -11 10 -2 0 -4
-4 -4 -10z"/>
<path d="M31 3180 c1 -42 1 -43 9 -16 6 17 5 36 0 45 -7 11 -9 3 -9 -29z"/>
<path d="M31 3076 c-1 -33 1 -57 4 -55 8 9 12 75 4 94 -5 13 -8 -1 -8 -39z"/>
<path d="M30 3000 c0 -5 5 -10 11 -10 5 0 7 5 4 10 -3 6 -8 10 -11 10 -2 0 -4
-4 -4 -10z"/>
<path d="M31 2940 c1 -42 1 -43 9 -16 6 17 5 36 0 45 -7 11 -9 3 -9 -29z"/>
<path d="M31 2836 c-1 -33 1 -57 4 -55 8 9 12 75 4 94 -5 13 -8 -1 -8 -39z"/>
<path d="M30 2760 c0 -5 5 -10 11 -10 5 0 7 5 4 10 -3 6 -8 10 -11 10 -2 0 -4
-4 -4 -10z"/>
<path d="M31 2700 c1 -42 1 -43 9 -16 6 17 5 36 0 45 -7 11 -9 3 -9 -29z"/>
<path d="M31 2596 c-1 -33 1 -57 4 -55 8 9 12 75 4 94 -5 13 -8 -1 -8 -39z"/>
<path d="M30 2520 c0 -5 5 -10 11 -10 5 0 7 5 4 10 -3 6 -8 10 -11 10 -2 0 -4
-4 -4 -10z"/>
<path d="M31 2460 c1 -42 1 -43 9 -16 6 17 5 36 0 45 -7 11 -9 3 -9 -29z"/>
<path d="M31 2356 c-1 -33 1 -57 4 -55 8 9 12 75 4 94 -5 13 -8 -1 -8 -39z"/>
<path d="M30 2280 c0 -5 5 -10 11 -10 5 0 7 5 4 10 -3 6 -8 10 -11 10 -2 0 -4
-4 -4 -10z"/>
<path d="M31 2220 c1 -42 1 -43 9 -16 6 17 5 36 0 45 -7 11 -9 3 -9 -29z"/>
<path d="M31 2116 c-1 -33 1 -57 4 -55 8 9 12 75 4 94 -5 13 -8 -1 -8 -39z"/>
<path d="M30 2040 c0 -5 5 -10 11 -10 5 0 7 5 4 10 -3 6 -8 10 -11 10 -2 0 -4
-4 -4 -10z"/>
<path d="M31 1980 c1 -42 1 -43 9 -16 6 17 5 36 0 45 -7 11 -9 3 -9 -29z"/>
<path d="M31 1876 c-1 -33 1 -57 4 -55 8 9 12 75 4 94 -5 13 -8 -1 -8 -39z"/>
<path d="M30 1800 c0 -5 5 -10 11 -10 5 0 7 5 4 10 -3 6 -8 10 -11 10 -2 0 -4
-4 -4 -10z"/>
<path d="M31 1740 c1 -42 1 -43 9 -16 6 17 5 36 0 45 -7 11 -9 3 -9 -29z"/>
<path d="M31 1636 c-1 -33 1 -57 4 -55 8 9 12 75 4 94 -5 13 -8 -1 -8 -39z"/>
<path d="M30 1560 c0 -5 5 -10 11 -10 5 0 7 5 4 10 -3 6 -8 10 -11 10 -2 0 -4
-4 -4 -10z"/>
<path d="M31 1500 c1 -42 1 -43 9 -16 6 17 5 36 0 45 -7 11 -9 3 -9 -29z"/>
<path d="M31 1396 c-1 -33 1 -57 4 -55 8 9 12 75 4 94 -5 13 -8 -1 -8 -39z"/>
<path d="M30 1320 c0 -5 5 -10 11 -10 5 0 7 5 4 10 -3 6 -8 10 -11 10 -2 0 -4
-4 -4 -10z"/>
<path d="M31 1260 c1 -42 1 -43 9 -16 6 17 5 36 0 45 -7 11 -9 3 -9 -29z"/>
<path d="M31 1156 c-1 -33 1 -57 4 -55 8 9 12 75 4 94 -5 13 -8 -1 -8 -39z"/>
<path d="M30 1080 c0 -5 5 -10 11 -10 5 0 7 5 4 10 -3 6 -8 10 -11 10 -2 0 -4
-4 -4 -10z"/>
<path d="M30 1012 c0 -28 3 -53 8 -55 9 -6 8 90 -1 100 -4 3 -7 -17 -7 -45z"/>
<path d="M5265 400 c-3 -5 -1 -10 4 -10 6 0 11 5 11 10 0 6 -2 10 -4 10 -3 0
-8 -4 -11 -10z"/>
</g>
</svg>
